<?xml version="1.0" encoding="UTF-8" standalone="no"?>
<!-- Created with Inkscape (http://www.inkscape.org/) -->

<svg
   xmlns:dc="http://purl.org/dc/elements/1.1/"
   xmlns:cc="http://creativecommons.org/ns#"
   xmlns:rdf="http://www.w3.org/1999/02/22-rdf-syntax-ns#"
   xmlns:svg="http://www.w3.org/2000/svg"
   xmlns="http://www.w3.org/2000/svg"
   xmlns:sodipodi="http://sodipodi.sourceforge.net/DTD/sodipodi-0.dtd"
   xmlns:inkscape="http://www.inkscape.org/namespaces/inkscape"
   width="210mm"
   height="297mm"
   id="svg2"
   version="1.1"
   inkscape:version="0.48.5 r10040">
  <defs
     id="defs4">
    <marker
       inkscape:stockid="Arrow1Mend"
       orient="auto"
       refY="0.0"
       refX="0.0"
       id="Arrow1Mend"
       style="overflow:visible;">
      <path
         id="path3772"
         d="M 0.0,0.0 L 5.0,-5.0 L -12.5,0.0 L 5.0,5.0 L 0.0,0.0 z "
         style="fill-rule:evenodd;stroke:#000000;stroke-width:1.0pt;"
         transform="scale(0.4) rotate(180) translate(10,0)" />
    </marker>
    <marker
       inkscape:stockid="Arrow1Mend"
       orient="auto"
       refY="0"
       refX="0"
       id="Arrow1Mend-4"
       style="overflow:visible">
      <path
         inkscape:connector-curvature="0"
         id="path3772-4"
         d="M 0,0 5,-5 -12.5,0 5,5 0,0 z"
         style="fill-rule:evenodd;stroke:#000000;stroke-width:1pt"
         transform="matrix(-0.4,0,0,-0.4,-4,0)" />
    </marker>
    <marker
       inkscape:stockid="Arrow1Mend"
       orient="auto"
       refY="0"
       refX="0"
       id="marker4397"
       style="overflow:visible">
      <path
         inkscape:connector-curvature="0"
         id="path4399"
         d="M 0,0 5,-5 -12.5,0 5,5 0,0 z"
         style="fill-rule:evenodd;stroke:#000000;stroke-width:1pt"
         transform="matrix(-0.4,0,0,-0.4,-4,0)" />
    </marker>
  </defs>
  <sodipodi:namedview
     id="base"
     pagecolor="#ffffff"
     bordercolor="#666666"
     borderopacity="1.0"
     inkscape:pageopacity="0.0"
     inkscape:pageshadow="2"
     inkscape:zoom="2"
     inkscape:cx="271.27906"
     inkscape:cy="148.02733"
     inkscape:document-units="px"
     inkscape:current-layer="layer1"
     showgrid="true"
     inkscape:object-paths="true"
     inkscape:object-nodes="true"
     showguides="true"
     inkscape:guide-bbox="true"
     inkscape:window-width="1598"
     inkscape:window-height="879"
     inkscape:window-x="0"
     inkscape:window-y="19"
     inkscape:window-maximized="0">
    <inkscape:grid
       type="xygrid"
       id="grid2985"
       empspacing="5"
       visible="true"
       enabled="true"
       snapvisiblegridlinesonly="true"
       units="mm"
       spacingx="1mm"
       spacingy="1mm" />
  </sodipodi:namedview>
  <metadata
     id="metadata7">
    <rdf:RDF>
      <cc:Work
         rdf:about="">
        <dc:format>image/svg+xml</dc:format>
        <dc:type
           rdf:resource="http://purl.org/dc/dcmitype/StillImage" />
        <dc:title></dc:title>
      </cc:Work>
    </rdf:RDF>
  </metadata>
  <g
     inkscape:label="Ebene 1"
     inkscape:groupmode="layer"
     id="layer1">
    <path
       style="fill:#00007f;fill-opacity:0.49803922;stroke:none"
       d="m 343.70079,768.89762 0,106.29921 -244.488192,0 0,-106.29921"
       id="path4426-1"
       inkscape:connector-curvature="0"
       sodipodi:nodetypes="cccc" />
    <path
       style="fill:#ff00ff;fill-opacity:0.49803922;stroke:none"
       d="m 375.59055,768.89762 0,106.29921 -24.80315,0 0,-106.29921"
       id="path4426-2"
       inkscape:connector-curvature="0"
       sodipodi:nodetypes="cccc" />
    <path
       style="fill:#00ff00;fill-opacity:0.49803922;stroke:none"
       d="m 411.02362,768.89762 0,106.29921 -24.80315,0 0,-106.29921"
       id="path4426-2-3"
       inkscape:connector-curvature="0"
       sodipodi:nodetypes="cccc" />
    <path
       style="fill:#ff0000;fill-opacity:0.49803922;stroke:none"
       d="m 481.88976,768.89762 0,106.29921 -24.80315,0 0,-106.29921"
       id="path4426-3"
       inkscape:connector-curvature="0"
       sodipodi:nodetypes="cccc" />
    <path
       style="fill:#00ff00;fill-opacity:0.49803922;stroke:none"
       d="m 85.03937,768.89762 0,106.29921 -24.80315,0 0,-106.29921"
       id="path4426"
       inkscape:connector-curvature="0"
       sodipodi:nodetypes="cccc" />
    <path
       style="fill:none;stroke:#000000;stroke-width:1px;stroke-linecap:butt;stroke-linejoin:miter;stroke-opacity:1;marker-end:url(#Arrow1Mend)"
       d="m 53.149606,811.41728 0,-35.43307"
       id="path2987"
       inkscape:connector-curvature="0" />
    <path
       style="fill:none;stroke:#000000;stroke-width:1px;stroke-linecap:butt;stroke-linejoin:miter;stroke-opacity:1;marker-end:url(#Arrow1Mend)"
       d="m 46.062992,804.33069 449.999998,0"
       id="path2989"
       inkscape:connector-curvature="0"
       sodipodi:nodetypes="cc" />
    <path
       style="fill:none;stroke:#000000;stroke-width:1px;stroke-linecap:butt;stroke-linejoin:miter;stroke-opacity:1;marker-end:url(#Arrow1Mend)"
       d="m 53.149606,864.56688 0,-35.43307"
       id="path2987-9"
       inkscape:connector-curvature="0" />
    <path
       style="fill:none;stroke:#000000;stroke-width:1px;stroke-linecap:butt;stroke-linejoin:miter;stroke-opacity:1;marker-end:url(#Arrow1Mend)"
       d="m 46.062988,857.48029 450.000002,0"
       id="path2989-6"
       inkscape:connector-curvature="0"
       sodipodi:nodetypes="cc" />
    <path
       style="fill:none;stroke:#0000ff;stroke-width:1px;stroke-linecap:butt;stroke-linejoin:miter;stroke-opacity:1"
       d="m 53.149606,839.76376 35.433071,0 0,17.71653 17.716533,0 0,-17.71653 17.71654,0 0,14.17323 0,3.5433 17.71653,0 0,-17.71653 17.71654,0 0,17.71653 17.71653,0 0,-17.71653 17.71654,0 0,17.71653 17.71654,0 0,-17.71653 17.71653,0 0,17.71653 17.71654,0 0,-17.71653 17.71653,0 0,17.71653 17.71654,0 0,-17.71653 17.71653,0 0,17.71653 17.71654,0 0,-17.71653 17.71653,0 0,17.71653 17.71654,0 0,-17.71653 17.71653,0 0,17.71653 17.71654,0 0,-17.71653 17.71653,0 0,17.71653 35.43308,0 0,-17.71653 53.1496,0"
       id="path4420"
       inkscape:connector-curvature="0"
       sodipodi:nodetypes="ccccccccccccccccccccccccccccccccccccccccccc" />
    <path
       style="fill:none;stroke:#ff0000;stroke-width:1px;stroke-linecap:butt;stroke-linejoin:miter;stroke-opacity:1"
       d="m 53.149606,786.61415 14.173229,0 10.629921,17.71654 14.173228,0 10.629926,-17.71654 24.80315,0 10.62992,17.71654 24.80315,0 10.62992,-17.71654 24.80315,0 10.62992,17.71654 24.80315,0 10.62992,-17.71654 24.80315,0 10.62992,17.71654 24.80315,0 10.62992,-17.71654 24.80315,0 10.62992,17.71654 24.80315,0 10.62992,-17.71654 24.80315,0 10.62992,17.71654 42.51969,0 10.62992,-17.71654 14.17323,0"
       id="path4422"
       inkscape:connector-curvature="0"
       sodipodi:nodetypes="cccccccccccccccccccccccccc" />
    <path
       style="fill:none;stroke:#ff0000;stroke-width:1px;stroke-linecap:butt;stroke-linejoin:miter;stroke-opacity:1"
       d="m 92.125984,804.33069 35.433076,0 10.62992,-17.71654 24.80315,0 10.62992,17.71654 24.80315,0 10.62992,-17.71654 24.80315,0 10.62992,17.71654 24.80315,0 10.62992,-17.71654 24.80315,0 10.62992,17.71654 24.80315,0 10.62992,-17.71654 24.80315,0 10.62992,17.71654 35.43307,0"
       id="path4424"
       inkscape:connector-curvature="0"
       sodipodi:nodetypes="cccccccccccccccccc" />
    <text
       xml:space="preserve"
       style="font-size:20px;font-style:normal;font-weight:normal;line-height:125%;letter-spacing:0px;word-spacing:0px;fill:#000000;fill-opacity:1;stroke:none;font-family:Sans"
       x="17.716536"
       y="804.33069"
       id="text4507"
       sodipodi:linespacing="125%"><tspan
         sodipodi:role="line"
         id="tspan4509"
         x="17.716536"
         y="804.33069">D</tspan></text>
    <text
       xml:space="preserve"
       style="font-size:20px;font-style:normal;font-weight:normal;line-height:125%;letter-spacing:0px;word-spacing:0px;fill:#000000;fill-opacity:1;stroke:none;font-family:Sans"
       x="17.716536"
       y="857.48029"
       id="text4507-5"
       sodipodi:linespacing="125%"><tspan
         sodipodi:role="line"
         id="tspan4509-0"
         x="17.716536"
         y="857.48029">C</tspan></text>
  </g>
</svg>
