<?xml version="1.0" encoding="UTF-8" standalone="no"?>
<!-- Created with Inkscape (http://www.inkscape.org/) -->

<svg
   xmlns:dc="http://purl.org/dc/elements/1.1/"
   xmlns:cc="http://creativecommons.org/ns#"
   xmlns:rdf="http://www.w3.org/1999/02/22-rdf-syntax-ns#"
   xmlns:svg="http://www.w3.org/2000/svg"
   xmlns="http://www.w3.org/2000/svg"
   xmlns:sodipodi="http://sodipodi.sourceforge.net/DTD/sodipodi-0.dtd"
   xmlns:inkscape="http://www.inkscape.org/namespaces/inkscape"
   width="210mm"
   height="297mm"
   id="svg2"
   version="1.1"
   inkscape:version="0.48.5 r10040"
   sodipodi:docname="pwm_01.svg">
  <defs
     id="defs4">
    <marker
       inkscape:stockid="Arrow1Mend"
       orient="auto"
       refY="0.0"
       refX="0.0"
       id="Arrow1Mend"
       style="overflow:visible;">
      <path
         id="path3774"
         d="M 0.0,0.0 L 5.0,-5.0 L -12.5,0.0 L 5.0,5.0 L 0.0,0.0 z "
         style="fill-rule:evenodd;stroke:#000000;stroke-width:1.0pt;"
         transform="scale(0.4) rotate(180) translate(10,0)" />
    </marker>
    <marker
       inkscape:stockid="Arrow1Mend"
       orient="auto"
       refY="0"
       refX="0"
       id="Arrow1Mend-0"
       style="overflow:visible">
      <path
         inkscape:connector-curvature="0"
         id="path3774-8"
         d="M 0,0 5,-5 -12.5,0 5,5 0,0 z"
         style="fill-rule:evenodd;stroke:#000000;stroke-width:1pt"
         transform="matrix(-0.4,0,0,-0.4,-4,0)" />
    </marker>
    <marker
       inkscape:stockid="Arrow1Mend"
       orient="auto"
       refY="0"
       refX="0"
       id="marker4437"
       style="overflow:visible">
      <path
         inkscape:connector-curvature="0"
         id="path4439"
         d="M 0,0 5,-5 -12.5,0 5,5 0,0 z"
         style="fill-rule:evenodd;stroke:#000000;stroke-width:1pt"
         transform="matrix(-0.4,0,0,-0.4,-4,0)" />
    </marker>
    <marker
       inkscape:stockid="Arrow1Mend"
       orient="auto"
       refY="0"
       refX="0"
       id="marker4437-0"
       style="overflow:visible">
      <path
         inkscape:connector-curvature="0"
         id="path4439-1"
         d="M 0,0 5,-5 -12.5,0 5,5 0,0 z"
         style="fill-rule:evenodd;stroke:#000000;stroke-width:1pt"
         transform="matrix(-0.4,0,0,-0.4,-4,0)" />
    </marker>
    <marker
       inkscape:stockid="Arrow1Mend"
       orient="auto"
       refY="0"
       refX="0"
       id="marker4437-7"
       style="overflow:visible">
      <path
         inkscape:connector-curvature="0"
         id="path4439-5"
         d="M 0,0 5,-5 -12.5,0 5,5 0,0 z"
         style="fill-rule:evenodd;stroke:#000000;stroke-width:1pt"
         transform="matrix(-0.4,0,0,-0.4,-4,0)" />
    </marker>
    <marker
       inkscape:stockid="Arrow1Mend"
       orient="auto"
       refY="0"
       refX="0"
       id="marker4437-5"
       style="overflow:visible">
      <path
         inkscape:connector-curvature="0"
         id="path4439-4"
         d="M 0,0 5,-5 -12.5,0 5,5 0,0 z"
         style="fill-rule:evenodd;stroke:#000000;stroke-width:1pt"
         transform="matrix(-0.4,0,0,-0.4,-4,0)" />
    </marker>
    <marker
       inkscape:stockid="Arrow1Mend"
       orient="auto"
       refY="0"
       refX="0"
       id="marker4437-06"
       style="overflow:visible">
      <path
         inkscape:connector-curvature="0"
         id="path4439-2"
         d="M 0,0 5,-5 -12.5,0 5,5 0,0 z"
         style="fill-rule:evenodd;stroke:#000000;stroke-width:1pt"
         transform="matrix(-0.4,0,0,-0.4,-4,0)" />
    </marker>
    <marker
       inkscape:stockid="Arrow1Mend"
       orient="auto"
       refY="0"
       refX="0"
       id="marker4437-9"
       style="overflow:visible">
      <path
         inkscape:connector-curvature="0"
         id="path4439-3"
         d="M 0,0 5,-5 -12.5,0 5,5 0,0 z"
         style="fill-rule:evenodd;stroke:#000000;stroke-width:1pt"
         transform="matrix(-0.4,0,0,-0.4,-4,0)" />
    </marker>
    <marker
       inkscape:stockid="Arrow1Mend"
       orient="auto"
       refY="0"
       refX="0"
       id="marker4437-4"
       style="overflow:visible">
      <path
         inkscape:connector-curvature="0"
         id="path4439-8"
         d="M 0,0 5,-5 -12.5,0 5,5 0,0 z"
         style="fill-rule:evenodd;stroke:#000000;stroke-width:1pt"
         transform="matrix(-0.4,0,0,-0.4,-4,0)" />
    </marker>
    <marker
       inkscape:stockid="Arrow1Mend"
       orient="auto"
       refY="0"
       refX="0"
       id="marker4437-1"
       style="overflow:visible">
      <path
         inkscape:connector-curvature="0"
         id="path4439-6"
         d="M 0,0 5,-5 -12.5,0 5,5 0,0 z"
         style="fill-rule:evenodd;stroke:#000000;stroke-width:1pt"
         transform="matrix(-0.4,0,0,-0.4,-4,0)" />
    </marker>
    <marker
       inkscape:stockid="Arrow1Mend"
       orient="auto"
       refY="0"
       refX="0"
       id="marker4437-2"
       style="overflow:visible">
      <path
         inkscape:connector-curvature="0"
         id="path4439-19"
         d="M 0,0 5,-5 -12.5,0 5,5 0,0 z"
         style="fill-rule:evenodd;stroke:#000000;stroke-width:1pt"
         transform="matrix(-0.4,0,0,-0.4,-4,0)" />
    </marker>
    <marker
       inkscape:stockid="Arrow1Mend"
       orient="auto"
       refY="0"
       refX="0"
       id="marker4437-49"
       style="overflow:visible">
      <path
         inkscape:connector-curvature="0"
         id="path4439-16"
         d="M 0,0 5,-5 -12.5,0 5,5 0,0 z"
         style="fill-rule:evenodd;stroke:#000000;stroke-width:1pt"
         transform="matrix(-0.4,0,0,-0.4,-4,0)" />
    </marker>
    <marker
       inkscape:stockid="Arrow1Mend"
       orient="auto"
       refY="0"
       refX="0"
       id="marker4437-25"
       style="overflow:visible">
      <path
         inkscape:connector-curvature="0"
         id="path4439-0"
         d="M 0,0 5,-5 -12.5,0 5,5 0,0 z"
         style="fill-rule:evenodd;stroke:#000000;stroke-width:1pt"
         transform="matrix(-0.4,0,0,-0.4,-4,0)" />
    </marker>
    <marker
       inkscape:stockid="Arrow1Mend"
       orient="auto"
       refY="0"
       refX="0"
       id="marker4437-50"
       style="overflow:visible">
      <path
         inkscape:connector-curvature="0"
         id="path4439-81"
         d="M 0,0 5,-5 -12.5,0 5,5 0,0 z"
         style="fill-rule:evenodd;stroke:#000000;stroke-width:1pt"
         transform="matrix(-0.4,0,0,-0.4,-4,0)" />
    </marker>
    <marker
       inkscape:stockid="Arrow1Mend"
       orient="auto"
       refY="0"
       refX="0"
       id="marker5130"
       style="overflow:visible">
      <path
         inkscape:connector-curvature="0"
         id="path5132"
         d="M 0,0 5,-5 -12.5,0 5,5 0,0 z"
         style="fill-rule:evenodd;stroke:#000000;stroke-width:1pt"
         transform="matrix(-0.4,0,0,-0.4,-4,0)" />
    </marker>
    <marker
       inkscape:stockid="Arrow1Mend"
       orient="auto"
       refY="0"
       refX="0"
       id="marker5134"
       style="overflow:visible">
      <path
         inkscape:connector-curvature="0"
         id="path5136"
         d="M 0,0 5,-5 -12.5,0 5,5 0,0 z"
         style="fill-rule:evenodd;stroke:#000000;stroke-width:1pt"
         transform="matrix(-0.4,0,0,-0.4,-4,0)" />
    </marker>
    <marker
       inkscape:stockid="Arrow1Mend"
       orient="auto"
       refY="0"
       refX="0"
       id="marker5138"
       style="overflow:visible">
      <path
         inkscape:connector-curvature="0"
         id="path5140"
         d="M 0,0 5,-5 -12.5,0 5,5 0,0 z"
         style="fill-rule:evenodd;stroke:#000000;stroke-width:1pt"
         transform="matrix(-0.4,0,0,-0.4,-4,0)" />
    </marker>
    <marker
       inkscape:stockid="Arrow1Mend"
       orient="auto"
       refY="0"
       refX="0"
       id="marker4437-3"
       style="overflow:visible">
      <path
         inkscape:connector-curvature="0"
         id="path4439-9"
         d="M 0,0 5,-5 -12.5,0 5,5 0,0 z"
         style="fill-rule:evenodd;stroke:#000000;stroke-width:1pt"
         transform="matrix(-0.4,0,0,-0.4,-4,0)" />
    </marker>
    <marker
       inkscape:stockid="Arrow1Mend"
       orient="auto"
       refY="0"
       refX="0"
       id="marker4437-061"
       style="overflow:visible">
      <path
         inkscape:connector-curvature="0"
         id="path4439-48"
         d="M 0,0 5,-5 -12.5,0 5,5 0,0 z"
         style="fill-rule:evenodd;stroke:#000000;stroke-width:1pt"
         transform="matrix(-0.4,0,0,-0.4,-4,0)" />
    </marker>
    <marker
       inkscape:stockid="Arrow1Mend"
       orient="auto"
       refY="0"
       refX="0"
       id="marker4437-23"
       style="overflow:visible">
      <path
         inkscape:connector-curvature="0"
         id="path4439-37"
         d="M 0,0 5,-5 -12.5,0 5,5 0,0 z"
         style="fill-rule:evenodd;stroke:#000000;stroke-width:1pt"
         transform="matrix(-0.4,0,0,-0.4,-4,0)" />
    </marker>
    <marker
       inkscape:stockid="Arrow1Mend"
       orient="auto"
       refY="0"
       refX="0"
       id="marker4437-45"
       style="overflow:visible">
      <path
         inkscape:connector-curvature="0"
         id="path4439-03"
         d="M 0,0 5,-5 -12.5,0 5,5 0,0 z"
         style="fill-rule:evenodd;stroke:#000000;stroke-width:1pt"
         transform="matrix(-0.4,0,0,-0.4,-4,0)" />
    </marker>
    <marker
       inkscape:stockid="Arrow1Mend"
       orient="auto"
       refY="0"
       refX="0"
       id="marker4437-52"
       style="overflow:visible">
      <path
         inkscape:connector-curvature="0"
         id="path4439-49"
         d="M 0,0 5,-5 -12.5,0 5,5 0,0 z"
         style="fill-rule:evenodd;stroke:#000000;stroke-width:1pt"
         transform="matrix(-0.4,0,0,-0.4,-4,0)" />
    </marker>
    <marker
       inkscape:stockid="Arrow1Mend"
       orient="auto"
       refY="0"
       refX="0"
       id="marker4437-48"
       style="overflow:visible">
      <path
         inkscape:connector-curvature="0"
         id="path4439-7"
         d="M 0,0 5,-5 -12.5,0 5,5 0,0 z"
         style="fill-rule:evenodd;stroke:#000000;stroke-width:1pt"
         transform="matrix(-0.4,0,0,-0.4,-4,0)" />
    </marker>
  </defs>
  <sodipodi:namedview
     id="base"
     pagecolor="#ffffff"
     bordercolor="#666666"
     borderopacity="1.0"
     inkscape:pageopacity="0.0"
     inkscape:pageshadow="2"
     inkscape:zoom="1.0645457"
     inkscape:cx="388.27599"
     inkscape:cy="385.27195"
     inkscape:document-units="px"
     inkscape:current-layer="layer1"
     showgrid="true"
     inkscape:window-width="1598"
     inkscape:window-height="879"
     inkscape:window-x="0"
     inkscape:window-y="19"
     inkscape:window-maximized="0">
    <inkscape:grid
       type="xygrid"
       id="grid2985"
       empspacing="5"
       visible="true"
       enabled="true"
       snapvisiblegridlinesonly="true"
       units="mm"
       spacingx="1mm"
       spacingy="1mm" />
  </sodipodi:namedview>
  <metadata
     id="metadata7">
    <rdf:RDF>
      <cc:Work
         rdf:about="">
        <dc:format>image/svg+xml</dc:format>
        <dc:type
           rdf:resource="http://purl.org/dc/dcmitype/StillImage" />
        <dc:title></dc:title>
      </cc:Work>
    </rdf:RDF>
  </metadata>
  <g
     inkscape:label="Ebene 1"
     inkscape:groupmode="layer"
     id="layer1">
    <path
       style="fill:none;stroke:#0000ff;stroke-width:2;stroke-linecap:butt;stroke-linejoin:miter;stroke-opacity:1;stroke-miterlimit:4;stroke-dasharray:none;stroke-dashoffset:0"
       d="M 70.866142,751.18108 248.0315,574.01573 l 0,177.16535 177.16535,-177.16535 0,177.16535 177.16535,-177.16535 0,177.16535 35.43308,-35.43307"
       id="path2987"
       inkscape:connector-curvature="0" />
    <path
       style="fill:none;stroke:#000000;stroke-width:1px;stroke-linecap:butt;stroke-linejoin:miter;stroke-opacity:1;marker-end:url(#Arrow1Mend)"
       d="m 70.866142,768.89762 0,-212.59843"
       id="path2989"
       inkscape:connector-curvature="0" />
    <path
       style="fill:none;stroke:#000000;stroke-width:1px;stroke-linecap:butt;stroke-linejoin:miter;stroke-opacity:1;marker-end:url(#Arrow1Mend)"
       d="m 53.149606,751.18108 602.362204,0"
       id="path2991"
       inkscape:connector-curvature="0" />
    <text
       xml:space="preserve"
       style="font-size:20px;font-style:normal;font-weight:normal;line-height:125%;letter-spacing:0px;word-spacing:0px;fill:#000000;fill-opacity:1;stroke:none;font-family:Sans"
       x="0"
       y="577.55902"
       id="text4387"
       sodipodi:linespacing="125%"><tspan
         sodipodi:role="line"
         id="tspan4389"
         x="0"
         y="577.55902"
         style="font-size:12px">0xFFFF</tspan></text>
    <text
       xml:space="preserve"
       style="font-size:20px;font-style:normal;font-weight:normal;line-height:125%;letter-spacing:0px;word-spacing:0px;fill:#000000;fill-opacity:1;stroke:none;font-family:Sans"
       x="0"
       y="754.72437"
       id="text4387-4"
       sodipodi:linespacing="125%"><tspan
         sodipodi:role="line"
         id="tspan4389-7"
         x="0"
         y="754.72437"
         style="font-size:12px">0x0000</tspan></text>
    <path
       style="fill:none;stroke:#000000;stroke-width:1;stroke-linecap:butt;stroke-linejoin:miter;stroke-opacity:1;stroke-miterlimit:4;stroke-dasharray:2, 2;stroke-dashoffset:0"
       d="m 70.866142,751.18108 70.866138,-70.86614 0,70.86614 70.86615,-70.86614 0,70.86614 70.86614,-70.86614 0,70.86614 70.86614,-70.86614 0,70.86614 70.86614,-70.86614 0,70.86614 70.86614,-70.86614 0,70.86614 70.86614,-70.86614 0,70.86614 70.86615,-70.86614"
       id="path4423"
       inkscape:connector-curvature="0" />
    <path
       style="fill:none;stroke:#000000;stroke-width:1px;stroke-linecap:butt;stroke-linejoin:miter;stroke-opacity:1;marker-end:url(#Arrow1Mend)"
       d="m 70.866142,857.48029 0,-70.86614"
       id="path2989-5"
       inkscape:connector-curvature="0" />
    <path
       style="fill:none;stroke:#000000;stroke-width:1px;stroke-linecap:butt;stroke-linejoin:miter;stroke-opacity:1;marker-end:url(#Arrow1Mend)"
       d="m 53.149606,839.76376 602.362194,0"
       id="path2991-7"
       inkscape:connector-curvature="0" />
    <text
       xml:space="preserve"
       style="font-size:20px;font-style:normal;font-weight:normal;line-height:125%;letter-spacing:0px;word-spacing:0px;fill:#000000;fill-opacity:1;stroke:none;font-family:Sans"
       x="655.51184"
       y="768.89764"
       id="text4460"
       sodipodi:linespacing="125%"><tspan
         sodipodi:role="line"
         id="tspan4462"
         x="655.51184"
         y="768.89764"
         style="font-size:12px">t</tspan></text>
    <text
       xml:space="preserve"
       style="font-size:20px;font-style:normal;font-weight:normal;line-height:125%;letter-spacing:0px;word-spacing:0px;fill:#000000;fill-opacity:1;stroke:none;font-family:Sans"
       x="655.51184"
       y="857.48029"
       id="text4460-4"
       sodipodi:linespacing="125%"><tspan
         sodipodi:role="line"
         id="tspan4462-2"
         x="655.51184"
         y="857.48029"
         style="font-size:12px">t</tspan></text>
    <text
       xml:space="preserve"
       style="font-size:20px;font-style:normal;font-weight:normal;line-height:125%;letter-spacing:0px;word-spacing:0px;fill:#000000;fill-opacity:1;stroke:none;font-family:Sans"
       x="0"
       y="737.00787"
       id="text4487-3"
       sodipodi:linespacing="125%"><tspan
         sodipodi:role="line"
         id="tspan4489-3"
         x="0"
         y="737.00787"
         style="font-size:12px">Value</tspan></text>
    <path
       style="fill:none;stroke:#ff0000;stroke-width:2;stroke-linecap:butt;stroke-linejoin:miter;stroke-opacity:1;stroke-miterlimit:4;stroke-dasharray:none"
       d="m 70.866142,804.33069 17.716535,0 0,35.43307 53.149603,0 0,-35.43307 17.71654,0 0,35.43307 53.14961,0 0,-35.43307 17.71653,0 0,35.43307 53.14961,0 0,-35.43307 17.71653,0 0,35.43307 53.14961,0 0,-35.43307 17.71653,0 0,35.43307 53.14961,0 0,-35.43307 17.71654,0 0,35.43307 53.1496,0 0,-35.43307 17.71654,0 0,35.43307 53.1496,0 0,-35.43307 17.71654,0 0,35.43307 53.14961,0"
       id="path4518"
       inkscape:connector-curvature="0" />
    <path
       style="fill:none;stroke:#000000;stroke-width:1px;stroke-linecap:butt;stroke-linejoin:miter;stroke-opacity:1"
       d="m 60.23622,574.01573 21.259843,0"
       id="path4520"
       inkscape:connector-curvature="0" />
    <path
       sodipodi:type="arc"
       style="fill:#ff0000;stroke:#ff0000;stroke-width:2;stroke-linecap:round;stroke-linejoin:round;stroke-miterlimit:4;stroke-opacity:1;stroke-dasharray:none;stroke-dashoffset:0;fill-opacity:1"
       id="path4560"
       sodipodi:cx="141.73228"
       sodipodi:cy="680.31494"
       sodipodi:rx="3.5433099"
       sodipodi:ry="3.5433099"
       d="m 145.27559,680.31494 a 3.5433099,3.5433099 0 1 1 -7.08662,0 3.5433099,3.5433099 0 1 1 7.08662,0 z" />
    <path
       transform="translate(70.866137,-70.866141)"
       sodipodi:type="arc"
       style="fill:#ff0000;fill-opacity:1;stroke:#ff0000;stroke-width:2;stroke-linecap:round;stroke-linejoin:round;stroke-miterlimit:4;stroke-opacity:1;stroke-dasharray:none;stroke-dashoffset:0"
       id="path4560-2"
       sodipodi:cx="141.73228"
       sodipodi:cy="680.31494"
       sodipodi:rx="3.5433099"
       sodipodi:ry="3.5433099"
       d="m 145.27559,680.31494 a 3.5433099,3.5433099 0 1 1 -7.08662,0 3.5433099,3.5433099 0 1 1 7.08662,0 z" />
    <path
       transform="translate(141.73228,35.433072)"
       sodipodi:type="arc"
       style="fill:#ff0000;fill-opacity:1;stroke:#ff0000;stroke-width:2;stroke-linecap:round;stroke-linejoin:round;stroke-miterlimit:4;stroke-opacity:1;stroke-dasharray:none;stroke-dashoffset:0"
       id="path4560-6"
       sodipodi:cx="141.73228"
       sodipodi:cy="680.31494"
       sodipodi:rx="3.5433099"
       sodipodi:ry="3.5433099"
       d="m 145.27559,680.31494 a 3.5433099,3.5433099 0 1 1 -7.08662,0 3.5433099,3.5433099 0 1 1 7.08662,0 z" />
    <path
       transform="translate(212.59842,-35.43307)"
       sodipodi:type="arc"
       style="fill:#ff0000;fill-opacity:1;stroke:#ff0000;stroke-width:2;stroke-linecap:round;stroke-linejoin:round;stroke-miterlimit:4;stroke-opacity:1;stroke-dasharray:none;stroke-dashoffset:0"
       id="path4560-63"
       sodipodi:cx="141.73228"
       sodipodi:cy="680.31494"
       sodipodi:rx="3.5433099"
       sodipodi:ry="3.5433099"
       d="m 145.27559,680.31494 a 3.5433099,3.5433099 0 1 1 -7.08662,0 3.5433099,3.5433099 0 1 1 7.08662,0 z" />
    <path
       transform="translate(283.46456,-106.29921)"
       sodipodi:type="arc"
       style="fill:#ff0000;fill-opacity:1;stroke:#ff0000;stroke-width:2;stroke-linecap:round;stroke-linejoin:round;stroke-miterlimit:4;stroke-opacity:1;stroke-dasharray:none;stroke-dashoffset:0"
       id="path4560-9"
       sodipodi:cx="141.73228"
       sodipodi:cy="680.31494"
       sodipodi:rx="3.5433099"
       sodipodi:ry="3.5433099"
       d="m 145.27559,680.31494 a 3.5433099,3.5433099 0 1 1 -7.08662,0 3.5433099,3.5433099 0 1 1 7.08662,0 z" />
    <path
       transform="translate(354.3307,1.1379243e-6)"
       sodipodi:type="arc"
       style="fill:#ff0000;fill-opacity:1;stroke:#ff0000;stroke-width:2;stroke-linecap:round;stroke-linejoin:round;stroke-miterlimit:4;stroke-opacity:1;stroke-dasharray:none;stroke-dashoffset:0"
       id="path4560-4"
       sodipodi:cx="141.73228"
       sodipodi:cy="680.31494"
       sodipodi:rx="3.5433099"
       sodipodi:ry="3.5433099"
       d="m 145.27559,680.31494 a 3.5433099,3.5433099 0 1 1 -7.08662,0 3.5433099,3.5433099 0 1 1 7.08662,0 z" />
    <path
       transform="translate(425.19685,-70.866141)"
       sodipodi:type="arc"
       style="fill:#ff0000;fill-opacity:1;stroke:#ff0000;stroke-width:2;stroke-linecap:round;stroke-linejoin:round;stroke-miterlimit:4;stroke-opacity:1;stroke-dasharray:none;stroke-dashoffset:0"
       id="path4560-5"
       sodipodi:cx="141.73228"
       sodipodi:cy="680.31494"
       sodipodi:rx="3.5433099"
       sodipodi:ry="3.5433099"
       d="m 145.27559,680.31494 a 3.5433099,3.5433099 0 1 1 -7.08662,0 3.5433099,3.5433099 0 1 1 7.08662,0 z" />
    <path
       transform="translate(-53.149614,53.149607)"
       sodipodi:type="arc"
       style="fill:#ff0000;fill-opacity:1;stroke:#ff0000;stroke-width:2;stroke-linecap:round;stroke-linejoin:round;stroke-miterlimit:4;stroke-opacity:1;stroke-dasharray:none;stroke-dashoffset:0"
       id="path4560-6-2"
       sodipodi:cx="141.73228"
       sodipodi:cy="680.31494"
       sodipodi:rx="3.5433099"
       sodipodi:ry="3.5433099"
       d="m 145.27559,680.31494 a 3.5433099,3.5433099 0 1 1 -7.08662,0 3.5433099,3.5433099 0 1 1 7.08662,0 z" />
    <path
       transform="translate(-70.866149,70.866147)"
       sodipodi:type="arc"
       style="fill:#ff0000;fill-opacity:1;stroke:#ff0000;stroke-width:2;stroke-linecap:round;stroke-linejoin:round;stroke-miterlimit:4;stroke-opacity:1;stroke-dasharray:none;stroke-dashoffset:0"
       id="path4560-6-2-0"
       sodipodi:cx="141.73228"
       sodipodi:cy="680.31494"
       sodipodi:rx="3.5433099"
       sodipodi:ry="3.5433099"
       d="m 145.27559,680.31494 a 3.5433099,3.5433099 0 1 1 -7.08662,0 3.5433099,3.5433099 0 1 1 7.08662,0 z" />
    <path
       transform="translate(17.716531,-17.716534)"
       sodipodi:type="arc"
       style="fill:#ff0000;fill-opacity:1;stroke:#ff0000;stroke-width:2;stroke-linecap:round;stroke-linejoin:round;stroke-miterlimit:4;stroke-opacity:1;stroke-dasharray:none;stroke-dashoffset:0"
       id="path4560-7"
       sodipodi:cx="141.73228"
       sodipodi:cy="680.31494"
       sodipodi:rx="3.5433099"
       sodipodi:ry="3.5433099"
       d="m 145.27559,680.31494 a 3.5433099,3.5433099 0 1 1 -7.08662,0 3.5433099,3.5433099 0 1 1 7.08662,0 z" />
    <path
       style="fill:none;stroke:#000000;stroke-width:2;stroke-linecap:butt;stroke-linejoin:miter;stroke-miterlimit:4;stroke-opacity:1;stroke-dasharray:none;marker-end:url(#marker4437)"
       d="m 159.44883,662.5984 c 0,-106.29921 35.43307,-70.86614 53.1496,-53.1496"
       id="path4647-7-8"
       inkscape:connector-curvature="0"
       sodipodi:nodetypes="cc" />
    <path
       transform="translate(159.44881,17.716539)"
       sodipodi:type="arc"
       style="fill:#ff0000;fill-opacity:1;stroke:#ff0000;stroke-width:2;stroke-linecap:round;stroke-linejoin:round;stroke-miterlimit:4;stroke-opacity:1;stroke-dasharray:none;stroke-dashoffset:0"
       id="path4560-9-8"
       sodipodi:cx="141.73228"
       sodipodi:cy="680.31494"
       sodipodi:rx="3.5433099"
       sodipodi:ry="3.5433099"
       d="m 145.27559,680.31494 a 3.5433099,3.5433099 0 1 1 -7.08662,0 3.5433099,3.5433099 0 1 1 7.08662,0 z" />
    <path
       transform="translate(230.31495,-53.149603)"
       sodipodi:type="arc"
       style="fill:#ff0000;fill-opacity:1;stroke:#ff0000;stroke-width:2;stroke-linecap:round;stroke-linejoin:round;stroke-miterlimit:4;stroke-opacity:1;stroke-dasharray:none;stroke-dashoffset:0"
       id="path4560-9-5"
       sodipodi:cx="141.73228"
       sodipodi:cy="680.31494"
       sodipodi:rx="3.5433099"
       sodipodi:ry="3.5433099"
       d="m 145.27559,680.31494 a 3.5433099,3.5433099 0 1 1 -7.08662,0 3.5433099,3.5433099 0 1 1 7.08662,0 z" />
    <path
       transform="translate(301.18109,53.149608)"
       sodipodi:type="arc"
       style="fill:#ff0000;fill-opacity:1;stroke:#ff0000;stroke-width:2;stroke-linecap:round;stroke-linejoin:round;stroke-miterlimit:4;stroke-opacity:1;stroke-dasharray:none;stroke-dashoffset:0"
       id="path4560-63-2"
       sodipodi:cx="141.73228"
       sodipodi:cy="680.31494"
       sodipodi:rx="3.5433099"
       sodipodi:ry="3.5433099"
       d="m 145.27559,680.31494 a 3.5433099,3.5433099 0 1 1 -7.08662,0 3.5433099,3.5433099 0 1 1 7.08662,0 z" />
    <path
       transform="translate(372.04723,-17.716533)"
       sodipodi:type="arc"
       style="fill:#ff0000;fill-opacity:1;stroke:#ff0000;stroke-width:2;stroke-linecap:round;stroke-linejoin:round;stroke-miterlimit:4;stroke-opacity:1;stroke-dasharray:none;stroke-dashoffset:0"
       id="path4560-63-28"
       sodipodi:cx="141.73228"
       sodipodi:cy="680.31494"
       sodipodi:rx="3.5433099"
       sodipodi:ry="3.5433099"
       d="m 145.27559,680.31494 a 3.5433099,3.5433099 0 1 1 -7.08662,0 3.5433099,3.5433099 0 1 1 7.08662,0 z" />
    <path
       transform="translate(442.91338,-88.582675)"
       sodipodi:type="arc"
       style="fill:#ff0000;fill-opacity:1;stroke:#ff0000;stroke-width:2;stroke-linecap:round;stroke-linejoin:round;stroke-miterlimit:4;stroke-opacity:1;stroke-dasharray:none;stroke-dashoffset:0"
       id="path4560-63-0"
       sodipodi:cx="141.73228"
       sodipodi:cy="680.31494"
       sodipodi:rx="3.5433099"
       sodipodi:ry="3.5433099"
       d="m 145.27559,680.31494 a 3.5433099,3.5433099 0 1 1 -7.08662,0 3.5433099,3.5433099 0 1 1 7.08662,0 z" />
    <path
       transform="translate(88.582677,-88.582681)"
       sodipodi:type="arc"
       style="fill:#ff0000;fill-opacity:1;stroke:#ff0000;stroke-width:2;stroke-linecap:round;stroke-linejoin:round;stroke-miterlimit:4;stroke-opacity:1;stroke-dasharray:none;stroke-dashoffset:0"
       id="path4560-7-2"
       sodipodi:cx="141.73228"
       sodipodi:cy="680.31494"
       sodipodi:rx="3.5433099"
       sodipodi:ry="3.5433099"
       d="m 145.27559,680.31494 a 3.5433099,3.5433099 0 1 1 -7.08662,0 3.5433099,3.5433099 0 1 1 7.08662,0 z" />
    <text
       xml:space="preserve"
       style="font-size:12px;font-style:normal;font-weight:normal;line-height:125%;letter-spacing:0px;word-spacing:0px;fill:#000000;fill-opacity:1;stroke:none;font-family:Sans"
       x="318.89764"
       y="609.44879"
       id="text5320"
       sodipodi:linespacing="125%"><tspan
         sodipodi:role="line"
         id="tspan5322"
         x="318.89764"
         y="609.44879" /></text>
    <path
       style="fill:none;stroke:#000000;stroke-width:2;stroke-linecap:butt;stroke-linejoin:miter;stroke-miterlimit:4;stroke-opacity:1;stroke-dasharray:none;marker-end:url(#marker4437)"
       d="m 354.33071,644.88187 c 0,-35.43307 0,-35.43307 17.71653,-17.71654"
       id="path4647-70-5-7-9"
       inkscape:connector-curvature="0"
       sodipodi:nodetypes="cc" />
    <text
       xml:space="preserve"
       x="92.125984"
       y="581.10236"
       id="text5320-4"><tspan
         sodipodi:role="line"
         id="tspan5322-1"
         x="92.125984"
         y="581.10236">TimerCounter+(T-t<tspan
   style="font-size:65.00091553%;baseline-shift:sub"
   id="tspan5398">ON</tspan>)</tspan></text>
    <text
       xml:space="preserve"
       style="font-size:12px;font-style:normal;font-weight:normal;line-height:125%;letter-spacing:0px;word-spacing:0px;fill:#000000;fill-opacity:1;stroke:none;font-family:Sans"
       x="269.29135"
       y="605.90552"
       id="text5400"
       sodipodi:linespacing="125%"><tspan
         sodipodi:role="line"
         id="tspan5402"
         x="269.29135"
         y="605.90552">TimerCounter+t<tspan
   style="font-size:65.00091553%;baseline-shift:sub"
   id="tspan5404">ON</tspan></tspan></text>
  </g>
</svg>
